<svg viewBox="0 0 22 22" fill="none" xmlns="http://www.w3.org/2000/svg">
<path d="M20.7446 1.60221L20.3934 1.25094C19.5083 0.365899 18.0713 0.365899 17.1817 1.25094L2.52384 15.9088C2.52384 15.9088 2.51472 15.9179 2.51472 15.9225C2.49191 15.9498 2.4691 15.9772 2.45541 16.0137C2.45541 16.0137 2.44629 16.0228 2.44629 16.0274L1.52932 18.4863L0.612346 20.9407C0.566726 21.0685 0.594098 21.2053 0.689901 21.3011C0.758332 21.3695 0.845011 21.4015 0.936252 21.4015C0.972748 21.4015 1.01837 21.3924 1.05487 21.3787L3.50924 20.4617L5.96362 19.5402H5.97275L5.98187 19.531C6.01837 19.5128 6.0503 19.4945 6.07767 19.4672C6.07767 19.4672 6.0868 19.4672 6.0868 19.4581L20.7492 4.79564C21.178 4.36681 21.4153 3.79656 21.4153 3.18524C21.4153 2.57393 21.1826 2.0128 20.7492 1.5794L20.7446 1.60221ZM1.51107 20.4845L1.98096 19.2345L2.76563 20.0192L1.51107 20.4845ZM3.46819 19.75L2.241 18.5228L2.89793 16.771L5.22001 19.0977L3.46819 19.75ZM18.9746 5.61225L16.3833 3.02101L16.9308 2.47356L19.522 5.0648L18.9746 5.61225ZM20.2611 4.32575L20.0102 4.58123L17.4189 1.98999L17.6698 1.73451C18.2903 1.11864 19.2939 1.11864 19.9144 1.73451L20.2656 2.09035C20.5667 2.38688 20.731 2.78834 20.731 3.20805C20.731 3.62776 20.5667 4.02922 20.2656 4.33031L20.2611 4.32575Z" fill="currentColor"/>
</svg>
