<svg viewBox="0 0 18 18" fill="none" xmlns="http://www.w3.org/2000/svg">
<path d="M0.674316 0.973511L2.55388 16.3111C2.66337 17.2144 3.42979 17.8896 4.33764 17.8896H13.6625C14.5703 17.8896 15.3367 17.2144 15.4462 16.3111L17.3258 0.973511H0.674316ZM5.83399 15.4352C5.83399 15.4352 5.80662 15.4352 5.78837 15.4352C5.51464 15.4352 5.28198 15.2253 5.25917 14.9471L4.36957 3.99815C4.34676 3.70617 4.56574 3.4507 4.85771 3.42789C5.14968 3.40508 5.40516 3.62406 5.42797 3.91603L6.31756 14.8649C6.34037 15.1569 6.1214 15.4124 5.82943 15.4352H5.83399ZM9.52924 14.906C9.52924 15.198 9.29202 15.4352 9.00005 15.4352C8.70808 15.4352 8.47085 15.198 8.47085 14.906V3.95709C8.47085 3.66512 8.70808 3.42789 9.00005 3.42789C9.29202 3.42789 9.52924 3.66512 9.52924 3.95709V14.906ZM13.6214 3.99815L12.7318 14.9471C12.709 15.2253 12.4763 15.4352 12.2026 15.4352C12.1889 15.4352 12.1752 15.4352 12.157 15.4352C11.865 15.4124 11.646 15.1569 11.6688 14.8649L12.5584 3.91603C12.5813 3.62406 12.8367 3.40508 13.1287 3.42789C13.4207 3.4507 13.6396 3.70617 13.6168 3.99815H13.6214Z" fill="currentColor"/>
</svg>
